<?xml version="1.0" standalone="no"?>
<!DOCTYPE svg PUBLIC "-//W3C//DTD SVG 20010904//EN"
 "http://www.w3.org/TR/2001/REC-SVG-20010904/DTD/svg10.dtd">
<svg version="1.0" xmlns="http://www.w3.org/2000/svg"
 width="1024.000000pt" height="1024.000000pt" viewBox="0 0 1024.000000 1024.000000"
 preserveAspectRatio="xMidYMid meet">
<metadata>
Created by potrace 1.11, written by Peter Selinger 2001-2013
</metadata>
<g transform="translate(0.000000,1024.000000) scale(0.100000,-0.100000)"
fill="#000000" stroke="none">
<path d="M4887 10234 c-2 -3 -33 -6 -68 -9 -35 -2 -77 -6 -94 -9 -16 -2 -58
-7 -92 -11 -34 -3 -72 -8 -85 -10 -98 -19 -141 -28 -197 -41 -64 -16 -80 -19
-122 -29 -12 -2 -47 -12 -78 -21 -31 -9 -63 -18 -71 -19 -8 -2 -16 -4 -17 -5
-2 -2 -6 -3 -10 -5 -5 -1 -16 -5 -25 -8 -10 -4 -26 -10 -35 -14 -10 -3 -20 -7
-23 -7 -39 -10 -100 -32 -100 -37 0 -4 -12 -9 -27 -12 -16 -3 -50 -16 -78 -28
-27 -12 -52 -23 -55 -24 -3 -1 -23 -10 -45 -20 -22 -10 -42 -19 -45 -20 -3 -1
-52 -26 -110 -55 -58 -30 -111 -56 -117 -58 -7 -2 -13 -7 -13 -10 0 -4 -15
-14 -32 -22 -18 -7 -37 -18 -43 -22 -25 -20 -87 -58 -95 -58 -6 0 -10 -4 -10
-10 0 -5 -7 -10 -15 -10 -8 0 -15 -4 -15 -10 0 -5 -6 -10 -13 -10 -8 0 -22 -9
-32 -20 -10 -11 -24 -20 -31 -20 -7 0 -14 -3 -16 -7 -1 -5 -30 -28 -63 -52
-33 -25 -62 -47 -65 -50 -3 -4 -21 -18 -40 -32 -97 -73 -300 -266 -411 -391
-49 -54 -114 -132 -128 -152 -8 -12 -18 -23 -21 -26 -49 -40 -269 -382 -354
-548 -20 -40 -41 -81 -46 -90 -9 -18 -52 -113 -54 -122 -1 -3 -7 -15 -14 -27
-7 -13 -9 -23 -5 -23 4 0 3 -4 -3 -8 -18 -12 -122 -314 -160 -462 -19 -75 -56
-247 -70 -325 -17 -97 -36 -314 -38 -422 0 -46 -5 -83 -9 -83 -4 0 -4 -7 1
-17 5 -9 6 -29 2 -44 -5 -15 -6 -30 -3 -32 2 -3 6 -72 8 -154 3 -81 6 -168 9
-193 2 -25 8 -81 11 -125 4 -44 9 -89 12 -100 3 -11 6 -33 8 -50 2 -16 6 -43
9 -60 4 -16 9 -46 12 -65 3 -19 7 -43 10 -52 3 -10 7 -29 10 -43 2 -13 20 -80
40 -147 20 -68 39 -133 41 -145 3 -13 9 -23 14 -23 5 0 8 -3 7 -7 -9 -33 139
-327 241 -478 47 -71 217 -302 231 -315 4 -4 77 -92 103 -125 4 -5 67 -84 139
-175 71 -91 139 -175 149 -188 11 -12 19 -24 19 -27 0 -3 23 -34 50 -69 28
-35 50 -68 50 -74 0 -6 4 -12 9 -14 8 -3 191 -275 191 -283 0 -3 18 -34 40
-70 22 -36 40 -70 40 -75 0 -6 3 -10 8 -10 4 0 14 -15 21 -33 8 -17 27 -53 43
-80 15 -26 25 -47 22 -47 -4 0 -1 -7 6 -15 11 -13 60 -108 65 -125 1 -3 13
-29 28 -59 15 -30 27 -60 27 -67 0 -7 3 -14 8 -16 4 -1 18 -30 31 -63 14 -33
30 -73 37 -90 7 -16 13 -34 14 -40 1 -5 8 -21 15 -35 7 -14 25 -54 40 -90 71
-168 221 -280 394 -294 34 -3 66 -8 71 -11 5 -3 11 -1 15 4 3 7 15 7 29 1 13
-5 27 -6 30 -3 4 4 25 6 49 5 23 -2 48 -2 55 -2 6 0 19 0 27 0 8 0 22 0 30 0
8 0 22 0 30 0 8 0 22 0 30 0 8 0 22 0 30 0 8 0 22 0 30 0 8 0 22 0 30 0 8 0
22 0 30 0 8 0 22 0 30 0 8 0 22 0 30 0 8 0 22 0 30 0 8 0 22 0 30 0 8 0 22 0
30 0 8 0 22 0 30 0 8 0 22 0 30 0 8 0 22 0 30 0 8 0 22 0 30 0 8 0 22 0 30 0
8 0 22 0 30 0 8 0 22 0 30 0 8 0 22 0 30 0 8 0 22 0 30 0 8 0 22 0 30 0 8 0
22 0 30 0 8 0 22 0 30 0 8 0 22 0 30 0 8 0 22 0 30 0 8 0 22 0 30 0 8 0 22 0
30 0 8 0 22 0 30 0 8 0 22 0 30 0 8 0 22 0 30 0 34 0 52 0 97 -1 26 0 52 2 58
6 5 3 10 2 10 -3 0 -6 14 -7 35 -2 19 4 35 5 35 1 0 -7 133 -6 146 1 5 3 18 2
29 -2 11 -4 32 -4 48 1 15 4 27 4 27 -1 0 -4 16 -4 35 0 19 4 35 5 35 1 0 -7
133 -6 146 1 5 3 18 2 29 -2 11 -4 32 -4 48 1 15 4 27 4 27 -1 0 -4 16 -4 35
0 19 4 35 5 35 1 0 -7 133 -6 146 1 5 3 18 2 29 -2 11 -4 32 -4 48 1 15 4 27
4 27 -1 0 -4 16 -4 35 0 19 4 35 5 35 1 0 -3 33 -5 72 -4 40 1 73 2 73 3 0 0
30 3 66 5 136 9 248 70 340 185 29 36 80 127 84 150 2 14 59 158 69 175 6 11
22 47 36 80 51 129 219 451 316 610 13 22 27 47 31 55 4 8 11 20 15 25 11 13
143 209 170 252 11 18 23 33 27 33 4 0 15 15 26 32 10 18 48 70 85 116 36 46
70 91 75 100 6 9 15 21 21 27 6 5 66 79 133 163 67 85 126 159 132 165 38 46
57 71 107 140 31 42 60 77 64 77 4 0 8 4 8 10 0 5 26 49 58 97 32 48 74 117
93 153 19 36 37 67 42 68 4 2 7 7 7 12 0 4 15 41 33 82 51 112 57 127 88 216
15 45 25 82 22 82 -3 0 -1 6 5 13 8 10 38 121 56 212 4 17 9 41 12 55 2 14 6
36 9 50 2 14 6 39 9 55 9 55 20 149 31 270 5 50 17 307 16 340 -1 78 -12 339
-15 365 -6 47 -18 172 -19 188 0 6 -3 12 -6 12 -3 0 -6 15 -7 33 -1 44 -6 73
-49 267 -27 126 -109 387 -154 490 -8 19 -14 38 -13 43 1 4 -3 7 -10 7 -6 0
-9 3 -6 6 11 10 -118 277 -194 403 -21 34 -38 67 -38 72 0 5 -4 9 -10 9 -5 0
-10 5 -10 10 0 23 -187 286 -294 414 -86 102 -269 290 -349 357 -15 13 -43 38
-62 56 -102 93 -358 275 -525 372 -58 34 -395 201 -405 201 -3 0 -22 7 -43 16
-20 10 -41 18 -47 20 -5 2 -68 23 -140 48 -71 25 -130 45 -130 44 0 0 -26 7
-59 16 -32 10 -70 19 -85 21 -14 2 -51 10 -81 18 -30 8 -89 20 -130 27 -41 7
-82 14 -90 17 -8 3 -33 7 -55 9 -22 2 -58 6 -80 9 -22 3 -62 8 -90 10 -67 7
-553 14 -558 9z m269 -1279 c16 -3 42 -7 57 -10 36 -7 104 -50 141 -89 90 -95
108 -252 43 -373 -32 -60 -133 -141 -187 -150 -45 -8 -95 -12 -185 -17 -55 -3
-111 -8 -125 -11 -13 -2 -42 -7 -65 -10 -325 -47 -717 -275 -936 -546 -19 -23
-38 -46 -44 -53 -56 -63 -185 -279 -185 -310 0 -9 -4 -16 -8 -16 -5 0 -14 -15
-20 -32 -6 -18 -23 -67 -37 -108 -14 -41 -28 -86 -31 -100 -3 -14 -10 -43 -16
-65 -5 -22 -12 -53 -14 -70 -2 -16 -6 -41 -9 -55 -3 -14 -8 -72 -11 -130 -3
-58 -6 -116 -8 -130 -19 -156 -151 -272 -311 -275 -67 -1 -83 2 -150 31 -47
20 -111 86 -141 145 -21 43 -27 69 -28 126 0 40 -5 73 -9 73 -5 0 -5 5 -2 11
4 6 9 38 11 72 4 69 12 152 19 188 3 13 7 41 10 64 4 22 15 76 27 120 11 44
21 87 23 95 6 29 59 185 64 190 3 3 7 12 9 20 10 44 123 275 163 332 11 14 19
31 19 37 0 6 5 11 10 11 6 0 10 4 10 10 0 14 73 115 160 220 70 85 251 270
264 270 3 0 16 10 29 23 70 65 253 188 377 255 77 41 203 98 230 104 8 2 17 5
20 8 3 3 37 16 75 29 65 21 77 25 97 30 4 1 37 11 73 21 36 10 69 19 73 19 16
2 105 17 137 24 35 8 157 19 243 22 46 2 86 6 89 9 3 3 9 4 13 1 3 -2 20 -6
36 -10z"/>
<path d="M3817 1923 c-1 -1 -30 -4 -63 -6 -94 -7 -151 -40 -196 -112 -23 -38
-52 -145 -39 -145 7 0 5 -85 -2 -97 -3 -5 -2 -15 3 -23 5 -8 5 -21 0 -30 -5
-9 -5 -22 0 -30 4 -7 5 -23 0 -35 -4 -11 -4 -28 1 -37 6 -10 6 -19 0 -22 -6
-4 -6 -18 -1 -36 5 -17 6 -30 2 -30 -4 0 -7 -34 -7 -75 0 -41 2 -75 5 -75 3 0
4 -25 4 -56 -2 -64 18 -149 48 -209 21 -40 83 -124 103 -137 5 -3 21 -16 35
-28 14 -12 49 -34 78 -48 32 -15 51 -30 48 -37 -2 -7 1 -18 7 -24 8 -8 8 -11
-1 -11 -8 0 -9 -7 -2 -25 6 -15 6 -27 0 -30 -6 -3 -6 -15 0 -30 6 -15 6 -27
-1 -30 -5 -4 -7 -10 -4 -15 3 -5 8 -34 11 -65 8 -103 60 -209 140 -288 53 -52
161 -110 234 -127 51 -11 1779 -9 1820 3 58 16 168 79 209 119 46 45 110 137
116 166 2 9 8 30 15 47 6 16 13 56 15 87 2 32 6 62 10 67 3 5 1 12 -4 16 -6 3
-7 15 -1 29 4 12 4 29 0 36 -5 8 -5 21 0 31 5 9 7 19 4 22 -15 14 10 44 51 61
50 20 149 109 190 169 33 50 66 148 71 217 3 30 7 61 9 68 2 6 0 12 -5 12 -5
0 -5 13 0 30 5 17 5 30 1 30 -4 0 -4 27 -1 60 3 33 3 60 -1 60 -4 0 -4 14 1
30 5 17 6 30 2 30 -8 0 -7 68 1 76 3 3 2 17 -3 30 -6 14 -6 24 0 24 5 0 5 12
0 30 -5 17 -5 30 -2 30 15 0 -1 142 -23 192 -7 19 -29 49 -47 67 -55 55 -111
71 -238 70 -72 0 -86 0 -143 1 -26 1 -51 -1 -55 -4 -4 -2 -14 -1 -20 3 -7 4
-33 5 -57 1 -25 -4 -45 -4 -45 -1 0 3 -26 5 -57 3 -67 -3 -65 -3 -118 -3 -22
0 -49 0 -60 0 -11 0 -41 1 -68 1 -26 1 -51 -1 -55 -4 -4 -2 -14 -1 -20 3 -7 4
-33 5 -57 1 -25 -4 -47 -5 -50 -2 -4 4 -95 6 -110 2 -7 -2 -123 -2 -132 0 -5
1 -33 1 -63 0 -30 0 -73 0 -95 0 -159 4 -195 4 -195 0 0 -4 -114 -4 -130 0 -3
1 -34 1 -70 0 -71 -1 -68 -1 -125 -1 -22 0 -49 1 -60 1 -11 0 -42 0 -68 0 -27
0 -53 -2 -58 -5 -5 -4 -9 -3 -9 2 0 4 -26 7 -57 5 -67 -3 -65 -3 -118 -3 -22
0 -47 0 -55 0 -8 0 -69 0 -135 1 -66 1 -124 1 -130 0 -5 -1 -23 -1 -39 0 -46
3 -138 5 -139 3z"/>
</g>
</svg>
